<?xml version="1.0" encoding="UTF-8"?>
<svg xmlns="http://www.w3.org/2000/svg" version="1.1" viewBox="0 0 114.5 154.9">
  <defs>
    <style>
      .cls-1 {
        fill: #1d351a;
      }

      .cls-2 {
        fill: #274c24;
      }
    </style>
  </defs>
  <!-- Generator: Adobe Illustrator 28.7.1, SVG Export Plug-In . SVG Version: 1.2.0 Build 142)  -->
  <g>
    <g id="Layer_1">
      <polygon class="cls-1" points="79.2 90.3 79.4 100.6 77.9 90.8 79.2 90.3"/>
      <g>
        <path class="cls-2" d="M79.4,100.6l-.8-10c-3.1,1-8.9,2.2-15.5,2.2-21.9,0-36.2-14.1-36.2-37.9s14.9-37.7,37.7-37.7,11.6.9,15.7,2.2,5.8-.8,6.6-3.6l1.3-4.4c-4-2-12.5-4.3-23.4-4.3-31.5,0-50.7,20.5-50.8,48.5,0,14.6,5,27.1,13.1,34.9,9.2,8.8,20.9,12.4,35.1,12.4s12.6-1.4,17.1-2.2Z"/>
        <path class="cls-2" d="M86.8,60.5h-27.1c-3.6,0-6.5,2.9-6.5,6.5v3c0,.1,0,.2.2.2h26.6v43.3c0,18.4-6.4,23.3-17.3,23.3s-7.7-.8-10.2-1.8l-.9,4.8c-.6,3.1,1.5,6,4.5,6.6s5.1.7,7.5.7c16.2,0,28.4-7.7,28.4-32.6v-48.6c0-3-2.4-5.4-5.4-5.4Z"/>
      </g>
    </g>
  </g>
</svg>